<?xml version="1.0" encoding="UTF-8"?>
<!DOCTYPE svg PUBLIC "-//W3C//DTD SVG 1.1//EN" "http://www.w3.org/Graphics/SVG/1.1/DTD/svg11.dtd">
<!-- Creator: CorelDRAW 2021 (64-Bit) -->
<svg xmlns="http://www.w3.org/2000/svg" xml:space="preserve" width="297mm" height="210mm" version="1.1" style="shape-rendering:geometricPrecision; text-rendering:geometricPrecision; image-rendering:optimizeQuality; fill-rule:evenodd; clip-rule:evenodd"
viewBox="0 0 29700 21000"
 xmlns:xlink="http://www.w3.org/1999/xlink"
 xmlns:xodm="http://www.corel.com/coreldraw/odm/2003">
 <defs>
  <style type="text/css">
   <![CDATA[
    .fil4 {fill:none}
    .fil1 {fill:#FEFEFE}
    .fil2 {fill:#FEFEFE}
    .fil3 {fill:#373435}
    .fil0 {fill:#FEFEFE;fill-rule:nonzero}
   ]]>
  </style>
 </defs>
 <g id="Capa_x0020_1">
  <metadata id="CorelCorpID_0Corel-Layer"/>
  <g id="_2249140316400">
   <polygon class="fil0" points="2671.19,5803.36 2671.19,19094.45 798.75,19094.45 798.75,1921.18 2894.91,1921.18 5335.28,6481.21 7796.28,1921.18 9892.44,1921.18 9892.44,19094.45 8016.57,19094.45 8016.57,5803.36 6120.05,9435.21 4567.71,9435.21 "/>
   <path class="fil1" d="M14684.69 2119.09c10.31,-109.67 94.85,-195.67 197,-195.67l5.53 0c89.65,0 165.61,63.04 190.36,157.99l4359.85 16731.11c17.7,68 6.48,134.91 -32.18,191.45 -38.66,56.54 -93.94,86.91 -158.18,86.91l-8725.23 0c-64.24,0 -119.52,-30.37 -158.18,-86.91 -38.66,-56.54 -49.88,-123.49 -32.14,-191.49l4353.17 -16693.39zm-2057.89 14855.43l4716.73 -55.4 -2448.47 -9145.7 -2268.26 9201.1z"/>
   <path class="fil2" d="M13803.37 13673.21c103.7,-290.96 328.36,-513.96 608.29,-644.41 489.97,-228.34 1068.79,-55.59 1359.99,311.65 96.66,121.91 163.77,233.42 218.83,407.75 23.98,75.92 45.44,181.9 51.01,265.11 6.52,97.36 -18.8,196.12 -11.6,288.29 -26.54,32.93 -25.33,58.66 -34.48,108.61 -113.51,282.33 -167.18,370.05 -349.37,536.36 -145.48,132.79 -347.51,243.55 -601.92,280.39 -454.56,65.82 -889.82,-147.98 -1128.46,-516.02 -209.22,-274.72 -224.4,-723.18 -112.29,-1037.73zm3071.86 856.92c-56.41,20.81 -112.9,67.91 -150.04,118.2 -36.39,6.13 -373.79,238.64 -425.19,268.19 -123.66,71.09 -323.02,183.76 -467.39,224.73 34.1,-66.38 80.18,-76.79 127.42,-137.23 202.56,-259.17 242.51,-425.07 325.59,-719.74 35.33,-219.1 6,-456.93 -56.49,-645.61 -85.78,-258.97 -143.95,-282.39 -252.95,-468.62 319.51,98.48 1190.22,737.09 1321.49,957.84 -58.48,85.45 -137.71,135.25 -211.51,207.26 -42.26,41.24 -197.47,164.62 -210.93,194.98zm-2178.93 143.4c112.61,23.76 255.2,43.84 366.51,-1.27 46.24,-10.73 88.98,-26.23 127.87,-53.87 122.75,-87.24 164.93,-112.66 242.62,-254.35 66.79,-121.82 76.07,-239.76 61.41,-394.97 -82.28,35.52 -84.87,129.84 -253.67,146.28 -122.39,11.91 -229.51,-48.93 -278.65,-108.24 -124.07,-149.74 -112.54,-366.02 103.14,-506.18 -91.67,-69.99 -297.99,-35.7 -404.86,4.19 -507.16,189.29 -545.89,966.97 35.63,1168.41zm-1088.23 -5.65c5.16,66.2 104.55,209.45 138.66,255.9 57.58,78.39 155.06,161.73 185.91,215.78 -299.83,-80.08 -898.43,-489.83 -1137.82,-702.88 -92.12,-81.98 -261.44,-219.49 -323.62,-308.79 63.68,-116.89 489.83,-451.04 614.61,-544.78 89.38,-67.15 605.2,-412.45 720.46,-416.07 -67.98,34.05 -231.72,359.14 -269.46,481.47 -58.55,189.77 -98.81,475.36 -44.44,678.93 13.01,103.54 47.11,278.1 115.7,340.44zm-1456.75 -536.65c51.98,49.57 69.87,88.83 118.17,132.65l260.05 252.58c291.26,234.48 367.83,329.44 750.28,560.68 1368.45,827.45 2653.91,546.36 3807.02,-428.64l274.49 -252.49c43.79,-41.8 89.09,-88.97 130.35,-125.56 55.67,-49.35 70.86,-85.5 125.92,-139.16 -42.31,-98.44 -410.59,-430.85 -518.58,-522.38 -180.82,-153.29 -389.28,-302.78 -614.89,-439.34 -1095.15,-662.91 -2104.83,-661.46 -3199.39,-0.01 -226.05,136.6 -421.9,281.91 -607.07,432.94 -108.35,88.36 -484.72,432.9 -526.35,528.73z"/>
   <path class="fil0" d="M21175.72 13731.14c-22,-0.07 -31.97,1.27 -27.99,4.06 3.98,2.8 11.94,4.21 21.94,4.24 11.96,0.04 21.96,0.07 29.91,2.87 7.98,2.81 -0.02,4.17 -23.95,4.1l-8.88 1465.4c195.72,-4.99 375.6,-32.24 539.66,-83.15 164.07,-52.31 304.24,-115.8 422.54,-194.63 116.31,-78.83 210.66,-166.05 281.15,-264.47 72.48,-97.02 111.07,-199.71 119.69,-308.02 8.75,-124.98 -24.57,-230.64 -97.9,-318.37 -73.37,-86.33 -174.81,-156.08 -302.28,-207.86 -129.48,-51.77 -275.05,-86.91 -438.71,-102.66 -163.65,-17.15 -335.37,-17.66 -515.18,-1.51zm1605.7 3593.93c0.89,-147.21 -28.2,-286.22 -85.32,-419.72 -57.08,-133.52 -150.23,-250.48 -279.42,-350.85 -127.21,-100.39 -294.42,-184.23 -501.71,-250.12 -205.28,-65.89 -456.68,-101.36 -754.18,-107.77l-12.42 2051.55c187.62,10.27 379.44,-5.82 573.43,-51.11 195.96,-46.65 372.07,-111.42 528.33,-194.28 156.3,-84.28 284.69,-183.93 383.25,-300.3 96.57,-116.4 147.23,-242.65 148.04,-377.4zm-2653.22 -4402.65c367.5,-10.03 750.91,-6.13 1152.18,10.33 401.29,17.84 776.36,73.1 1123.26,167.18 344.91,92.7 635.57,238.01 868.03,433.14 232.46,196.54 360.63,464.99 382.52,806.77 12.91,179.23 -14.02,338.89 -86.77,480.35 -70.75,141.47 -165.35,264.82 -281.83,372.81 -118.49,109.39 -244.82,199.32 -383.05,272.52 -136.23,71.85 -262.39,128.42 -380.44,165.58 490.37,147.27 854.45,370.58 1090.28,665.75 235.85,296.55 353.59,640 351.22,1031.69 -1.67,276.42 -97.05,527.55 -286.15,756.19 -189.1,227.25 -453.84,419.53 -794.27,578.27 -338.48,160.14 -746.55,277.02 -1218.26,350.64 -471.74,75.01 -997.06,95.71 -1573.97,60.68l37.25 -6151.9z"/>
   <path class="fil1" d="M26537.75 12901.53c674.19,-59.79 1213.5,238.41 1581.01,738.42 441.94,601.37 601.66,1427.18 629.35,2164.93 27.69,737.75 -69.21,1586.34 -463.23,2261.84 -328.06,562.31 -840.45,953.17 -1515.34,1013.01 -673.73,59.73 -1214.35,-235.85 -1583.41,-734.91 -444.7,-601.39 -604.84,-1428.82 -632.57,-2167.96 -27.71,-738.53 70.46,-1586.78 466.27,-2262.38 329.2,-561.96 842.82,-953.07 1517.92,-1012.95zm36.42 970.93c-600.71,53.28 -867.68,670.63 -974.13,1152.69 -77.15,349.43 -94.93,715.07 -81.78,1066.12 18.71,499.46 159.09,1043.12 435.33,1459.07 181.76,273.62 485,574.75 868.56,540.73 371,-32.88 595.54,-369.46 723.68,-669.05 199.97,-467.59 255.86,-1042.64 237.52,-1531.61 -19.22,-512.34 -111.95,-1130.69 -392.7,-1565.14 -179.07,-277.15 -445.31,-485.73 -816.48,-452.81z"/>
   <path class="fil3" d="M16875.13 14530.18c-52.49,19.37 -105.22,61.73 -142.22,108.09l63.82 238.44c97.59,-71.18 194.26,-147.22 290.03,-228.21l274.58 -252.45c43.72,-41.81 89.04,-89.04 130.4,-125.63 55.59,-49.36 70.82,-85.45 125.86,-139.13 -42.32,-98.45 -410.66,-430.84 -518.57,-522.38 -180.81,-153.31 -389.25,-302.76 -614.88,-439.34 -57.13,-34.59 -114.08,-67.32 -170.76,-98.27l85.95 321.07c369.48,235.45 808.19,583.93 898.37,735.51 -58.46,85.46 -137.82,135.27 -211.59,207.27 -42.31,41.22 -197.44,164.63 -210.99,195.03zm-3695.23 200.68c-155.67,-107.23 -295.53,-214.45 -385.07,-294.17 -92.09,-82 -261.49,-219.54 -323.62,-308.81 63.59,-116.9 489.75,-451.06 614.65,-544.74 54.18,-40.77 265.22,-183.81 448.66,-290.85l74 -300.17c-107.22,52.68 -215.08,111.72 -323.8,177.45 -226.08,136.63 -421.89,281.89 -607.02,432.98 -108.31,88.26 -484.8,432.84 -526.39,528.7 52,49.54 69.87,88.77 118.14,132.67l260.12 252.58c245.22,197.31 338.21,295.9 589.74,460.12l60.59 -245.76z"/>
   <g>
    <path class="fil2" d="M28764.42 12402.16c-0.04,0 -8695.59,26.88 -8695.63,26.88 -146.95,0.44 -266.42,-132.38 -266.81,-296.69 -0.38,-164.32 118.39,-297.91 265.34,-298.34 0.04,0 8695.59,-26.89 8695.63,-26.89 146.95,-0.43 266.42,132.38 266.8,296.7 0.39,164.32 -118.38,297.91 -265.33,298.34z"/>
   </g>
   <line class="fil4" x1="28763.68" y1="12104.64" x2="20068.05" y2= "12131.52" />
   <polygon class="fil0" points="22013.62,5388.12 22013.62,11320.61 20330.83,11320.61 20330.83,1899.15 22214.7,1899.15 24407.91,5997.32 26619.67,1899.15 28503.49,1899.15 28503.49,11339.29 26817.61,11339.29 26817.61,5388.12 25113.15,8652.15 23718.08,8652.15 "/>
  </g>
 </g>
</svg>
